#!OML:ASF H:\ManfredETheater\Project 1\Capture day 1\Session 1\subject.ASF
:FULLY-SPECIFIED
:DEGREES
1266
root 3.43682 7.90748 -5.87462 -3.30972 5.606 -0.0245832
lowerback 44.9529 0.285265 0.27164
upperback 7.45272 0.816546 1.69143
thorax -12.6259 0.369363 1.32304
lowerneck -13.8485 -4.02721 -6.02451
upperneck -12.3056 -4.18873 7.27271
head -1.31266 -1.89392 3.29926
rclavicle -1.07344e-014 2.0276e-014
rhumerus -27.9815 -2.58779 -66.576
rradius 62.8006
rwrist -12.588
rhand -20.4088 -8.3489
rfingers 7.12502
rthumb 5.94516 -38.2455
lclavicle -1.07344e-014 2.0276e-014
lhumerus -42.7192 -16.5196 86.1223
lradius 108.077
lwrist -15.8698
lhand -43.9996 7.23564
lfingers 7.12502
lthumb -16.8208 36.5271
rfemur -102.642 -72.4291 26.6884
rtibia 154.409
rfoot -33.1231 27.828
rtoes -23.7919
lfemur -96.1009 55.2282 -20.2258
ltibia 150.3
lfoot -38.9342 -36.8275
ltoes -18.3933
1267
root 3.44015 7.83628 -5.85969 -3.70347 5.53706 -0.0519668
lowerback 45.0014 0.291799 0.276697
upperback 7.44936 0.825759 1.68612
thorax -12.6435 0.372925 1.31038
lowerneck -13.8933 -4.02083 -6.03144
upperneck -12.285 -4.17664 7.27826
head -1.29899 -1.88641 3.30185
rclavicle 9.14409e-015 1.90833e-014
rhumerus -27.9349 -2.77583 -66.5593
rradius 62.8937
rwrist -12.7337
rhand -20.4586 -8.43899
rfingers 7.12502
rthumb 5.89703 -38.3369
lclavicle 9.14409e-015 1.90833e-014
lhumerus -42.6624 -16.8603 86.0924
lradius 107.935
lwrist -16.017
lhand -44.3511 7.51411
lfingers 7.12502
lthumb -17.1592 36.7764
rfemur -102.974 -73.319 26.4525
rtibia 154.958
rfoot -33.0265 28.1627
rtoes -24.0153
lfemur -96.3699 56.5113 -20.2039
ltibia 150.91
lfoot -39.1387 -36.9394
ltoes -18.5345
1268
root 3.44119 7.77676 -5.84505 -4.1018 5.50716 -0.0904339
lowerback 45.0736 0.293853 0.271545
upperback 7.44546 0.828091 1.69677
thorax -12.6689 0.373774 1.32362
lowerneck -13.954 -4.01556 -6.02879
upperneck -12.2705 -4.16621 7.28326
head -1.28491 -1.87991 3.30224
rclavicle -3.97569e-015 -3.49861e-014
rhumerus -27.8709 -2.9505 -66.5358
rradius 62.9885
rwrist -12.8722
rhand -20.5078 -8.52722
rfingers 7.12502
rthumb 5.84958 -38.4265
lclavicle -3.97569e-015 -3.49861e-014
lhumerus -42.5967 -17.2166 86.076
lradius 107.75
lwrist -16.0484
lhand -44.7248 7.73593
lfingers 7.12502
lthumb -17.5188 36.9666
rfemur -102.917 -74.2248 25.9719
rtibia 155.416
rfoot -33.0414 28.4735
rtoes -24.259
lfemur -96.4335 57.6595 -20.0104
ltibia 151.417
lfoot -39.3581 -37.0823
ltoes -18.6649
1269
root 3.4404 7.72906 -5.83103 -4.49558 5.50623 -0.140986
lowerback 45.1621 0.292519 0.258914
upperback 7.44023 0.825451 1.72053
thorax -12.7006 0.372657 1.35739
lowerneck -14.0308 -4.01042 -6.0152
upperneck -12.2639 -4.15623 7.28764
head -1.27107 -1.87384 3.30023
rclavicle -1.74931e-014 5.1684e-015
rhumerus -27.7866 -3.10697 -66.508
rradius 63.0755
rwrist -12.989
rhand -20.568 -8.6158
rfingers 7.12502
rthumb 5.79141 -38.5167
lclavicle -1.74931e-014 5.1684e-015
lhumerus -42.5197 -17.5699 86.0669
lradius 107.524
lwrist -15.9943
lhand -45.0995 7.91753
lfingers 7.12502
lthumb -17.8793 37.1157
rfemur -102.45 -75.1035 25.2216
rtibia 155.781
rfoot -33.1436 28.7561
rtoes -24.5162
lfemur -96.2974 58.6727 -19.6456
ltibia 151.822
lfoot -39.5907 -37.2618
ltoes -18.7919
1270
root 3.43835 7.69303 -5.8179 -4.8725 5.52332 -0.201983
lowerback 45.2544 0.289061 0.241412
upperback 7.43307 0.819705 1.75356
thorax -12.7359 0.370317 1.40533
lowerneck -14.1252 -4.00461 -5.99128
upperneck -12.2655 -4.14543 7.29213
head -1.25741 -1.86751 3.29622
rclavicle 1.31198e-014 -9.93923e-015
rhumerus -27.6801 -3.24233 -66.4776
rradius 63.1465
rwrist -13.0696
rhand -20.6485 -8.7039
rfingers 7.12502
rthumb 5.71368 -38.6069
lclavicle 1.31198e-014 -9.93923e-015
lhumerus -42.4276 -17.9028 86.0584
lradius 107.258
lwrist -15.8899
lhand -45.4521 8.0752
lfingers 7.12502
lthumb -18.2187 37.242
rfemur -101.587 -75.9056 24.2022
rtibia 156.052
rfoot -33.2997 29.007
rtoes -24.777
lfemur -95.9842 59.5465 -19.1307
ltibia 152.126
lfoot -39.8299 -37.4746
ltoes -18.9206
1271
root 3.43557 7.66839 -5.80587 -5.21962 5.54897 -0.26939
lowerback 45.3366 0.285141 0.220008
upperback 7.4236 0.81243 1.79199
thorax -12.7712 0.367437 1.46194
lowerneck -14.2383 -3.99761 -5.96045
upperneck -12.2749 -4.13251 7.2994
head -1.24357 -1.86012 3.29184
rclavicle 1.92821e-014 -8.34896e-015
rhumerus -27.5508 -3.35569 -66.4454
rradius 63.1959
rwrist -13.103
rhand -20.7521 -8.78939
rfingers 7.12502
rthumb 5.61365 -38.695
lclavicle 1.92821e-014 -8.34896e-015
lhumerus -42.3165 -18.2016 86.0445
lradius 106.954
lwrist -15.769
lhand -45.7616 8.21947
lfingers 7.12502
lthumb -18.5164 37.3582
rfemur -100.378 -76.5893 22.9467
rtibia 156.233
rfoot -33.4769 29.2245
rtoes -25.0279
lfemur -95.5244 60.2751 -18.5
ltibia 152.334
lfoot -40.0673 -37.7117
ltoes -19.0529
1272
root 3.43245 7.65474 -5.79497 -5.52428 5.57881 -0.337857
lowerback 45.3931 0.281099 0.195507
upperback 7.41173 0.803638 1.83226
thorax -12.8021 0.364043 1.52293
lowerneck -14.3709 -3.98952 -5.9276
upperneck -12.2909 -4.11678 7.31306
head -1.22888 -1.85109 3.28929
rclavicle -2.98177e-015 -3.97569e-016
rhumerus -27.4005 -3.44831 -66.4111
rradius 63.22
rwrist -13.0826
rhand -20.8767 -8.86859
rfingers 7.12502
rthumb 5.49338 -38.7774
lclavicle -2.98177e-015 -3.97569e-016
lhumerus -42.1825 -18.4575 86.0204
lradius 106.612
lwrist -15.6572
lhand -46.0116 8.34914
lfingers 7.12502
lthumb -18.7568 37.4648
rfemur -98.9155 -77.134 21.5291
rtibia 156.329
rfoot -33.6505 29.4093
rtoes -25.2567
lfemur -94.9551 60.8458 -17.7983
ltibia 152.451
lfoot -40.2917 -37.9584
ltoes -19.1884
